:FULLY-SPECIFIED
:FORCE-ALL-JOINTS-BE-3DOF
:DEGREES
97
root 9.40906 16.267 -23.6813 3.15997 -1.31127 3.65653
lfemur -1.6952 0.440721 -29.3817
ltibia 15.0922 0 0
lfoot -17.954 5.88477 0
ltoes -1.96889 0 0
rfemur -31.7758 5.84695 13.9959
rtibia 38.0983 0 0
rfoot -19.5022 -8.07713 0
rtoes -16.4976 0 0
lowerback -7.39351 -2.13263 -4.06769
upperback -0.370453 -2.57297 1.88539
thorax 4.0453 -1.37281 3.95163
lowerneck -20.0716 -5.00492 -12.8656
upperneck 20.331 -5.77326 11.2938
head 10.5589 -2.35773 5.35413
lclavicle -2.41756e-14 1.2161e-15 0
lhumerus -21.4375 -24.2102 88.0024
lradius 38.2863 0 0
lwrist 11.4035 0 0
lhand -14.5844 -25.4935 0
lfingers 7.12502 0 0
lthumb 11.5609 4.10728 0
rclavicle -2.41756e-14 1.2161e-15 0
rhumerus -44.4383 11.4723 -87.4943
rradius 38.4544 0 0
rwrist -21.3479 0 0
rhand -29.6307 -24.376 0
rfingers 7.12502 0 0
rthumb -2.96089 -54.3352 0
98
root 9.41186 16.2725 -23.5547 3.15278 -1.07245 3.70838
lfemur -1.07748 0.393887 -29.3683
ltibia 14.9408 0 0
lfoot -17.8455 5.84746 0
ltoes -2.03872 0 0
rfemur -32.4439 5.85182 13.992
rtibia 38.2281 0 0
rfoot -19.7725 -8.12264 0
rtoes -16.511 0 0
lowerback -7.39285 -2.18432 -4.09499
upperback -0.352727 -2.64005 1.88292
thorax 4.06884 -1.40696 3.95922
lowerneck -20.0495 -5.02565 -12.8796
upperneck 20.3341 -5.79641 11.2749
head 10.5595 -2.37224 5.34588
lclavicle -2.41979e-14 1.33043e-15 0
lhumerus -21.2851 -24.2535 87.9929
lradius 38.3369 0 0
lwrist 11.4021 0 0
lhand -14.7581 -25.5636 0
lfingers 7.12502 0 0
lthumb 11.3943 4.05803 0
rclavicle -2.41979e-14 1.33043e-15 0
rhumerus -44.4359 11.3253 -87.3391
rradius 38.2683 0 0
rwrist -21.2684 0 0
rhand -29.6446 -24.3343 0
rfingers 7.12502 0 0
rthumb -2.97424 -54.2933 0
99
root 9.41368 16.2777 -23.4266 3.14812 -0.839559 3.75587
lfemur -0.484402 0.353316 -29.3466
ltibia 14.8072 0 0
lfoot -17.7265 5.81046 0
ltoes -2.10803 0 0
rfemur -33.0804 5.85402 13.992
rtibia 38.3507 0 0
rfoot -20.0236 -8.16224 0
rtoes -16.5214 0 0
lowerback -7.39121 -2.23395 -4.11956
upperback -0.336587 -2.70461 1.88134
thorax 4.08995 -1.43978 3.96644
lowerneck -20.0285 -5.04608 -12.8937
upperneck 20.3348 -5.81935 11.2585
head 10.5595 -2.38636 5.33851
lclavicle -2.41828e-14 1.42398e-15 0
lhumerus -21.1501 -24.2796 87.984
lradius 38.373 0 0
lwrist 11.3867 0 0
lhand -14.9177 -25.627 0
lfingers 7.12502 0 0
lthumb 11.2412 4.01404 0
rclavicle -2.41828e-14 1.42398e-15 0
rhumerus -44.435 11.1823 -87.1882
rradius 38.0866 0 0
rwrist -21.1898 0 0
rhand -29.6581 -24.294 0
rfingers 7.12502 0 0
rthumb -2.98733 -54.2528 0
100
root 9.41448 16.2826 -23.297 3.14598 -0.613054 3.79894
lfemur 0.0829608 0.319036 -29.3168
ltibia 14.6914 0 0
lfoot -17.5974 5.77383 0
ltoes -2.17667 0 0
rfemur -33.6841 5.85357 13.996
rtibia 38.4658 0 0
rfoot -20.2553 -8.1959 0
rtoes -16.5288 0 0
lowerback -7.38861 -2.28145 -4.14138
upperback -0.322053 -2.76656 1.88063
thorax 4.10862 -1.47121 3.97328
lowerneck -20.0084 -5.06618 -12.908
upperneck 20.3332 -5.84203 11.2444
head 10.5589 -2.40007 5.33204
lclavicle -2.41309e-14 1.49673e-15 0
lhumerus -21.0326 -24.2885 87.9757
lradius 38.3948 0 0
lwrist 11.3576 0 0
lhand -15.0631 -25.6837 0
lfingers 7.12502 0 0
lthumb 11.1017 3.97534 0
rclavicle -2.41309e-14 1.49673e-15 0
rhumerus -44.4356 11.0436 -87.0419
rradius 37.9096 0 0
rwrist -21.1124 0 0
rhand -29.6713 -24.2554 0
rfingers 7.12502 0 0
rthumb -3.00011 -54.2141 0
101
root 9.41425 16.2869 -23.1657 3.14635 -0.393399 3.83753
lfemur 0.623523 0.291075 -29.279
ltibia 14.5934 0 0
lfoot -17.4587 5.73768 0
ltoes -2.24447 0 0
rfemur -34.254 5.8505 14.0038
rtibia 38.5735 0 0
rfoot -20.4671 -8.22359 0
rtoes -16.5331 0 0
lowerback -7.38507 -2.32671 -4.16042
upperback -0.309146 -2.82575 1.88081
thorax 4.12481 -1.50119 3.97972
lowerneck -19.9893 -5.08589 -12.9224
upperneck 20.3292 -5.8644 11.2328
head 10.5577 -2.41333 5.32647
lclavicle -2.40425e-14 1.5487e-15 0
lhumerus -20.9328 -24.2805 87.9681
lradius 38.4021 0 0
lwrist 11.315 0 0
lhand -15.194 -25.7336 0
lfingers 7.12502 0 0
lthumb 10.9762 3.94198 0
rclavicle -2.40425e-14 1.5487e-15 0
rhumerus -44.4376 10.9093 -86.9005
rradius 37.7377 0 0
rwrist -21.0363 0 0
rhand -29.6842 -24.2185 0
rfingers 7.12502 0 0
rthumb -3.01256 -54.177 0
102
root 9.41296 16.2909 -23.0327 3.14921 -0.181057 3.87157
lfemur 1.1362 0.26946 -29.2334
ltibia 14.5136 0 0
lfoot -17.3106 5.70206 0
ltoes -2.31131 0 0
rfemur -34.7889 5.84482 14.0155
rtibia 38.6733 0 0
rfoot -20.6587 -8.24527 0
rtoes -16.5344 0 0
lowerback -7.38059 -2.36966 -4.17665
upperback -0.297885 -2.88208 1.88185
thorax 4.13851 -1.52966 3.98576
lowerneck -19.9714 -5.10519 -12.9369
upperneck 20.3229 -5.8864 11.2237
head 10.5559 -2.42611 5.32182
lclavicle -2.3918e-14 1.57989e-15 0
lhumerus -20.8507 -24.2556 87.9612
lradius 38.3952 0 0
lwrist 11.259 0 0
lhand -15.3103 -25.7765 0
lfingers 7.12502 0 0
lthumb 10.8648 3.91401 0
rclavicle -2.3918e-14 1.57989e-15 0
rhumerus -44.4411 10.7798 -86.7643
rradius 37.5712 0 0
rwrist -20.9616 0 0
rhand -29.6968 -24.1834 0
rfingers 7.12502 0 0
rthumb -3.02466 -54.1417 0
103
root 9.41057 16.2944 -22.8979 3.15454 0.0235091 3.90101
lfemur 1.61992 0.25422 -29.1801
ltibia 14.4519 0 0
lfoot -17.1536 5.66707 0
ltoes -2.37701 0 0
rfemur -35.2877 5.83656 14.0309
rtibia 38.7651 0 0
rfoot -20.8297 -8.26092 0
rtoes -16.5326 0 0
lowerback -7.37519 -2.41019 -4.19004
upperback -0.288292 -2.93543 1.88376
thorax 4.1497 -1.55656 3.99138
lowerneck -19.9545 -5.12402 -12.9514
upperneck 20.3143 -5.90799 11.217
head 10.5535 -2.4384 5.31809
lclavicle -2.37579e-14 1.59028e-15 0
lhumerus -20.7865 -24.2139 87.9549
lradius 38.3741 0 0
lwrist 11.1897 0 0
lhand -15.4116 -25.8125 0
lfingers 7.12502 0 0
lthumb 10.7677 3.89148 0
rclavicle -2.37579e-14 1.59028e-15 0
rhumerus -44.446 10.6554 -86.6336
rradius 37.4106 0 0
rwrist -20.8886 0 0
rhand -29.7089 -24.1501 0
rfingers 7.12502 0 0
rthumb -3.03638 -54.1082 0
104
root 9.40681 16.2974 -22.7614 3.22871 0.362853 3.92952
lfemur 2.78826 0.503565 -28.8177
ltibia 14.9527 0 0
lfoot -16.1266 5.47351 0
ltoes -2.32424 0 0
rfemur -36.0072 5.68441 13.9746
rtibia 39.186 0 0
rfoot -20.4519 -8.24422 0
rtoes -16.5369 0 0
lowerback -7.33994 -2.51988 -4.21131
upperback -0.329636 -3.08183 1.90671
thorax 4.09619 -1.62836 4.01795
lowerneck -20.0175 -5.14488 -12.9828
upperneck 20.2645 -5.92267 11.2459
head 10.5511 -2.44107 5.32978
lclavicle -2.1445e-14 7.37251e-16 0
lhumerus -20.9274 -23.4448 87.8122
lradius 37.7476 0 0
lwrist 10.2604 0 0
lhand -15.0708 -25.6133 0
lfingers 7.12502 0 0
lthumb 11.0958 4.06384 0
rclavicle -2.1445e-14 7.37251e-16 0
rhumerus -44.7058 10.435 -86.5278
rradius 36.8219 0 0
rwrist -20.5781 0 0
rhand -29.6632 -24.0044 0
rfingers 7.12502 0 0
rthumb -2.99227 -53.9637 0
105
root 9.40147 16.3001 -22.6231 3.30442 0.697016 3.95125
lfemur 3.90066 0.749013 -28.4526
ltibia 15.4521 0 0
lfoot -15.1181 5.28742 0
ltoes -2.28226 0 0
rfemur -36.685 5.53468 13.9319
rtibia 39.5793 0 0
rfoot -20.0799 -8.21838 0
rtoes -16.5344 0 0
lowerback -7.30406 -2.62421 -4.22746
upperback -0.370526 -3.22146 1.93038
thorax 4.04235 -1.69674 4.04292
lowerneck -20.0765 -5.1664 -13.0147
upperneck 20.2117 -5.93891 11.2771
head 10.5473 -2.44442 5.34212
lclavicle -1.9171e-14 -1.06679e-16 0
lhumerus -21.0873 -22.6803 87.6784
lradius 37.1255 0 0
lwrist 9.34839 0 0
lhand -14.7347 -25.417 0
lfingers 7.12502 0 0
lthumb 11.4194 4.23381 0
rclavicle -1.9171e-14 -1.06679e-16 0
rhumerus -44.954 10.2192 -86.4199
rradius 36.2558 0 0
rwrist -20.2783 0 0
rhand -29.6213 -23.8662 0
rfingers 7.12502 0 0
rthumb -2.95178 -53.8266 0
